<?xml version="1.0" encoding="utf-8"?>
<!-- Generator: Adobe Illustrator 24.2.2, SVG Export Plug-In . SVG Version: 6.00 Build 0)  -->
<svg version="1.1" id="Layer_1" xmlns="http://www.w3.org/2000/svg" xmlns:xlink="http://www.w3.org/1999/xlink" x="0px" y="0px"
	 viewBox="0 0 1660 660" style="enable-background:new 0 0 1660 660;" xml:space="preserve">
<style type="text/css">
	.st0{fill:#FFFFFF;}
	.st1{fill:#003B95;}
</style>
<g id="XMLID_55_">
	<path id="XMLID_78_" class="st0" d="M700.45,248.34c0-10.12,8.17-18.32,18.24-18.32c10.1,0,18.3,8.2,18.3,18.32
		c0,10.11-8.2,18.32-18.3,18.32C708.62,266.67,700.45,258.46,700.45,248.34z"/>
	<path id="XMLID_77_" class="st0" d="M1006.96,388.49c10.09,0,18.29-8.22,18.29-18.32c0-10.11-8.2-18.32-18.29-18.32
		c-10.07,0-18.25,8.2-18.25,18.32C988.71,380.28,996.89,388.49,1006.96,388.49z"/>
	<path id="XMLID_74_" class="st0" d="M400.59,274.89c-33.29,0-57.45,23.97-57.45,57.02c0,33.04,24.16,57.02,57.45,57.02
		c33.42,0,57.68-23.99,57.68-57.02C458.27,298.87,434.01,274.89,400.59,274.89z M400.59,362.27c-15.73,0-26.67-12.51-26.67-30.36
		c0-17.85,10.94-30.34,26.67-30.34c15.83,0,26.9,12.49,26.9,30.34C427.49,350.04,416.65,362.27,400.59,362.27z"/>
	<path id="XMLID_73_" class="st0" d="M665.06,334.75c-1.29-2.42-2.76-4.49-4.35-6.11l-1.01-1.08l1.06-1.01
		c1.54-1.62,3.09-3.53,4.6-5.74l29.37-43.67h-35.65l-22.07,34.15c-1.26,1.83-3.78,2.78-7.56,2.78h-5.03v-64.59
		c0-12.92-8.05-14.67-16.73-14.67h-14.89l0.03,152.45h31.6v-45.72h2.97c3.6,0,6.06,0.42,7.19,2.36L652,376.8
		c4.87,8.92,9.71,10.45,18.85,10.45h24.22l-18.04-29.82L665.06,334.75z"/>
	<path id="XMLID_72_" class="st0" d="M818.47,274.65c-16.07,0-26.32,7.15-32.07,13.17l-1.92,1.95l-0.68-2.66
		c-1.68-6.44-7.37-10.02-15.93-10.02h-14.17l-0.01,110.11h31.47v-50.75c0-4.94,0.65-9.27,1.96-13.19
		c3.49-11.88,13.24-19.29,25.42-19.29c9.8,0,13.62,5.17,13.62,18.55v47.95c0,11.42,5.28,16.73,16.71,16.73h14.86l0-70.03
		C857.72,289.37,844.16,274.65,818.47,274.65z"/>
	<path id="XMLID_71_" class="st0" d="M719.1,277.14h-14.88l0,110.09l31.39,0l0-93.34C735.62,282.6,730.24,277.14,719.1,277.14z"/>
	<path id="XMLID_68_" class="st0" d="M523.88,274.89c-33.32,0-57.49,23.97-57.49,57.02c0,33.04,24.17,57.02,57.49,57.02
		c33.38,0,57.68-23.99,57.68-57.02C581.55,298.87,557.26,274.89,523.88,274.89z M523.88,362.27c-15.73,0-26.69-12.51-26.69-30.36
		c0-17.85,10.96-30.34,26.69-30.34c15.79,0,26.87,12.49,26.87,30.34C550.74,350.04,539.94,362.27,523.88,362.27z"/>
	<path id="XMLID_65_" class="st0" d="M1196.61,274.89c-33.29,0-57.47,23.97-57.47,57.02c0,33.04,24.18,57.02,57.47,57.02
		c33.4,0,57.7-23.99,57.7-57.02C1254.31,298.87,1230.01,274.89,1196.61,274.89z M1196.61,362.27c-15.73,0-26.69-12.51-26.69-30.36
		c0-17.85,10.96-30.34,26.69-30.34c15.81,0,26.91,12.49,26.91,30.34C1223.52,350.04,1212.68,362.27,1196.61,362.27z"/>
	<path id="XMLID_62_" class="st0" d="M961.82,276.86c-5.95,0-10.55,2.36-12.85,6.71l-0.85,1.69l-1.45-1.27
		c-5.08-4.4-14.16-9.58-28.9-9.58c-29.35,0-49.13,22.04-49.13,54.85c0,32.76,20.46,55.64,49.71,55.64c9.99,0,17.89-2.3,24.16-7.06
		l2.43-1.83v3.06c0,14.72-9.51,22.84-26.78,22.84c-8.36,0-15.99-2.05-21.09-3.89c-6.65-2.02-10.56-0.35-13.25,6.33l-6.03,15.17
		l2.19,1.17c11.06,5.84,25.39,9.35,38.37,9.35c26.72,0,57.95-13.68,57.95-52.19l0-100.98H961.82z M923.92,357.43
		c-17.13,0-23.25-14.99-23.25-29c0-6.19,1.54-26.34,21.57-26.34c9.97,0,23.29,2.84,23.29,27.37
		C945.53,352.59,933.77,357.43,923.92,357.43z"/>
	<path id="XMLID_58_" class="st0" d="M316.34,309.08l-4.62-2.59l4.02-3.43c4.69-4.05,12.56-13.1,12.56-28.77
		c0-23.97-18.59-39.43-47.35-39.43h-32.83h-3.74c-8.54,0.32-15.35,7.25-15.45,15.83v136h52.66c31.97,0,52.63-17.4,52.63-44.36
		C334.23,327.8,327.55,315.4,316.34,309.08z M258.15,270.57c0-7.04,2.98-10.39,9.52-10.81h13.06c11.21,0,17.93,6.71,17.93,17.95
		c0,8.56-4.6,18.53-17.52,18.53h-23V270.57z M283.7,361l-25.55-0.03v-30.55c0-6.54,2.54-9.93,8.13-10.7h17.41
		c12.44,0,20.48,7.83,20.48,20.53C304.19,353.29,296.34,361,283.7,361z"/>
	<path id="XMLID_57_" class="st0" d="M1394.52,275.01c-13.04,0-25.64,6.08-33.7,16.34l-2.29,2.87l-1.77-3.25
		c-5.79-10.59-15.81-15.96-29.74-15.96c-14.57,0-24.35,8.13-28.9,12.97l-2.98,3.23l-1.13-4.24c-1.67-6.12-7.1-9.46-15.34-9.46
		h-13.18l0,109.68h29.84v-48.42c0-4.26,0.54-8.44,1.6-12.82c2.86-11.71,10.72-24.29,23.93-23.04c8.16,0.8,12.14,7.1,12.14,19.26
		v65.02h30.19v-48.42c0-5.29,0.47-9.27,1.7-13.25c2.42-11.17,10.63-22.62,23.38-22.62c9.24,0,12.65,5.22,12.65,19.26v48.98
		c0,11.11,4.94,16.04,16.01,16.04h14.14v-70.03C1431.07,289.18,1418.73,275.01,1394.52,275.01z"/>
	<path id="XMLID_56_" class="st0" d="M1121.81,349.11c-0.09,0.11-13.01,13.71-29.98,13.71c-15.49,0-31.11-9.48-31.11-30.7
		c0-18.3,12.12-31.09,29.47-31.09c5.63,0,12.05,2.03,13.04,5.44l0.15,0.59c2.3,7.67,9.31,8.09,10.68,8.09h16.41V300.8
		c0-18.94-24.08-25.79-40.27-25.79c-34.64,0-59.81,24.14-59.81,57.35c0,33.24,24.87,57.32,59.17,57.32
		c29.78,0,46.96-20.82,46.96-20.82l-13-21.59L1121.81,349.11z"/>
</g>
</svg>
