<svg width="1660" height="660" viewBox="0 0 1660 660" fill="none" xmlns="http://www.w3.org/2000/svg">
<path fill-rule="evenodd" clip-rule="evenodd" d="M1253.5 257.007C1247.11 257.007 1242.24 252.147 1242.24 245.759C1242.24 239.368 1247.11 234.501 1253.5 234.501C1259.88 234.501 1264.75 239.368 1264.75 245.759C1264.75 252.147 1259.88 257.007 1253.5 257.007M1253.5 236.498C1248.22 236.498 1244.23 240.489 1244.23 245.759C1244.23 251.019 1248.22 255.008 1253.5 255.008C1258.77 255.008 1262.76 251.019 1262.76 245.759C1262.76 240.489 1258.77 236.498 1253.5 236.498M1256.43 246.849L1258.8 251.678H1255.87L1253.65 247.189H1251.53V251.678H1248.94V239.399H1254.65C1257.02 239.399 1258.86 240.64 1258.86 243.26C1258.86 245.38 1257.74 246.349 1256.43 246.849M1254.46 241.768H1251.53V244.909H1254.46C1255.58 244.909 1256.21 244.35 1256.21 243.319C1256.21 242.229 1255.55 241.768 1254.46 241.768" fill="#B5B5B6"/>
<mask id="mask0_7_324" style="mask-type:luminance" maskUnits="userSpaceOnUse" x="297" y="230" width="1067" height="199">
<path fill-rule="evenodd" clip-rule="evenodd" d="M297 428.051H1363.77V230H297V428.051Z" fill="white"/>
</mask>
<g mask="url(#mask0_7_324)">
<path fill-rule="evenodd" clip-rule="evenodd" d="M297 428.051H495.051V230H297V428.051Z" fill="#FF690F"/>
<path fill-rule="evenodd" clip-rule="evenodd" d="M504.053 428.051H702.104V230H504.053V428.051Z" fill="#FF690F"/>
<path fill-rule="evenodd" clip-rule="evenodd" d="M715.607 428.051H913.658V230H715.607V428.051Z" fill="#FF690F"/>
<path fill-rule="evenodd" clip-rule="evenodd" d="M922.66 428.051H1120.71V230H922.66V428.051Z" fill="#FF690F"/>
<path fill-rule="evenodd" clip-rule="evenodd" d="M1134.21 428.051H1332.27V230H1134.21V428.051Z" fill="#FF690F"/>
<path fill-rule="evenodd" clip-rule="evenodd" d="M604.962 307.873L593.527 344.84H616.396L604.962 307.873ZM587.673 364.287L583.421 378.538H558.067L590.307 279.513H620.5L652.591 378.538H626.503L622.251 364.287H587.673Z" fill="white"/>
<path fill-rule="evenodd" clip-rule="evenodd" d="M1023.57 307.873L1012.14 344.84H1035L1023.57 307.873ZM1006.27 364.287L1002.03 378.538H976.674L1008.92 279.513H1039.11L1071.2 378.538H1045.11L1040.86 364.287H1006.27Z" fill="white"/>
<path fill-rule="evenodd" clip-rule="evenodd" d="M827.074 378.538H802.641V334.897L769.621 279.513H798.725L815.012 309.948L830.997 279.513H859.644L827.074 334.897V378.538Z" fill="white"/>
<path fill-rule="evenodd" clip-rule="evenodd" d="M360.016 378.538H382.522V279.513H360.016V378.538Z" fill="white"/>
<path fill-rule="evenodd" clip-rule="evenodd" d="M432.035 378.538H405.451L378.021 329.029L405.451 279.513H432.035L404.44 329.029L432.035 378.538Z" fill="white"/>
<path fill-rule="evenodd" clip-rule="evenodd" d="M1192.73 378.538H1215.24V279.513H1192.73V378.538Z" fill="white"/>
<path fill-rule="evenodd" clip-rule="evenodd" d="M1269.25 378.538H1242.67L1215.24 329.029L1242.67 279.513H1269.25L1241.65 329.029L1269.25 378.538Z" fill="white"/>
<path fill-rule="evenodd" clip-rule="evenodd" d="M1350.42 240.719H1352.44C1354.16 240.719 1354.98 240.036 1354.98 238.605C1354.98 237.214 1354.23 236.562 1352.63 236.562H1350.42V240.719ZM1353.06 234.904C1356.05 234.904 1357.65 236.141 1357.65 238.417C1357.65 239.842 1356.9 240.914 1355.5 241.499C1357 242.118 1357.39 242.897 1357.45 245.558C1357.52 246.599 1357.61 247.12 1357.78 247.47H1355.21C1355.05 247.12 1354.98 246.729 1354.88 245.005C1354.72 242.924 1354.2 242.41 1352.21 242.312H1350.42V247.47H1347.75V234.904H1353.06ZM1343.39 241.272C1343.39 246.371 1347.49 250.559 1352.54 250.559C1357.56 250.559 1361.66 246.404 1361.66 241.272C1361.66 236.173 1357.58 231.951 1352.67 231.951C1347.46 231.951 1343.39 236.043 1343.39 241.272V241.272ZM1363.77 241.272C1363.77 247.47 1358.72 252.506 1352.54 252.506C1346.32 252.506 1341.27 247.47 1341.27 241.272C1341.27 234.969 1346.28 230 1352.7 230C1358.76 230 1363.77 235.1 1363.77 241.272V241.272Z" fill="#FF690F"/>
</g>
</svg>
