<svg width="1660" height="660" viewBox="0 0 1660 660" fill="none" xmlns="http://www.w3.org/2000/svg">
<path fill-rule="evenodd" clip-rule="evenodd" d="M379 330.008C379 316.202 390.184 305.007 403.984 305.007C417.781 305.007 428.971 316.202 428.971 330.008C428.971 343.818 417.781 355.013 403.984 355.013C390.184 355.013 379 343.818 379 330.008M554.5 355.013C540.702 355.013 529.518 343.818 529.518 330.008C529.518 316.202 540.702 305.007 554.5 305.007C568.299 305.007 579.49 316.202 579.49 330.008C579.49 343.818 568.299 355.013 554.5 355.013M554.502 230C499.309 230 454.561 274.779 454.561 330.008C454.561 385.245 499.309 430.02 554.502 430.02C609.703 430.02 654.444 385.245 654.444 330.008C654.444 274.779 609.703 230 554.502 230" fill="#DA3743"/>
<path fill-rule="evenodd" clip-rule="evenodd" d="M1268.8 322.272C1270.38 322.272 1271.32 321.564 1271.32 320.278C1271.32 319.114 1270.68 318.349 1268.92 318.349H1267.28V322.272H1268.8ZM1264.89 316.362H1269.33C1271.78 316.362 1273.89 317.355 1273.89 320.164C1273.89 321.564 1273.01 322.916 1271.73 323.379L1274.42 328.237H1271.73L1269.68 324.144H1267.28V328.237H1264.89V316.362ZM1277.8 322.444C1277.8 316.949 1274 313.027 1269.1 313.027C1264.18 313.027 1260.44 316.949 1260.44 322.444C1260.44 328.003 1264.18 331.803 1269.1 331.803C1274 331.803 1277.8 328.003 1277.8 322.444V322.444ZM1258.1 322.444C1258.1 315.6 1263.07 310.917 1269.1 310.917C1275.17 310.917 1280.14 315.6 1280.14 322.444C1280.14 329.289 1275.17 333.968 1269.1 333.968C1263.07 333.968 1258.1 329.289 1258.1 322.444V322.444ZM1184.76 369.226C1186.24 369.226 1187.49 367.992 1187.49 366.512V356.473C1187.49 354.991 1186.26 353.757 1184.78 353.757H1184.34C1183.11 353.757 1181.89 352.538 1181.89 351.31L1181.89 350.868V291.827C1181.89 290.469 1180.53 289.111 1179.18 289.111H1169.18C1167.83 289.111 1166.47 290.469 1166.47 291.827V357.717L1166.51 359.435C1166.51 364.339 1171.41 369.241 1176.31 369.241L1184.76 369.226ZM745.063 304.824C758.651 304.824 770.122 316.345 770.122 330.005C770.122 343.788 758.879 354.978 745.063 354.978C731.307 354.978 720.123 343.788 720.123 330.005C720.123 316.12 731.307 304.824 745.063 304.824V304.824ZM745.063 288.963C722.57 288.963 704.275 307.376 704.275 330.005C704.275 352.9 722.18 370.839 745.063 370.839C768.006 370.839 785.974 352.9 785.974 330.005C785.974 307.376 767.614 288.963 745.063 288.963V288.963ZM1070.54 352.963C1069.8 355.062 1065.36 359.012 1060.3 359.012C1055 359.012 1052.04 355.801 1052.04 350.988C1052.04 345.927 1055.61 342.842 1062.15 342.842C1066.72 342.842 1070.54 344.569 1070.54 344.569V352.963ZM1063.88 310.873C1054.63 310.873 1045.62 313.218 1044.39 313.713C1043.16 314.081 1042.05 315.069 1042.54 317.168L1043.77 323.588C1044.02 325.314 1045.13 326.672 1046.98 326.055C1050.31 325.068 1057.83 323.956 1063.02 323.956C1069.06 323.956 1071.16 327.413 1070.91 334.694C1070.91 334.694 1065.73 333.09 1059.93 333.09C1045.5 333.09 1037.24 340.867 1037.24 350.988C1037.24 363.208 1045.13 370.489 1056.48 370.489C1065.36 370.489 1071.03 366.539 1074.36 363.331V366.396C1074.36 367.878 1075.6 369.112 1077.08 369.112H1078.09C1078.19 369.133 1078.31 369.133 1078.43 369.133H1082.63C1084.11 369.133 1085.34 367.897 1085.34 366.417V335.684C1085.34 320.13 1081.64 310.873 1063.88 310.873V310.873ZM960.326 310.873C949.411 310.873 944.108 316.736 941.99 319.101V314.823C941.99 313.34 940.756 312.107 939.276 312.107H932.822C931.464 312.107 930.108 313.218 930.108 314.823V366.417C930.108 367.897 931.464 369.133 932.822 369.133H941.95C944.664 369.133 945.527 368.514 945.527 366.417V333.831C946.883 329.881 950.46 324.944 957.861 324.944C964.769 324.944 967.729 329.51 967.729 336.917V366.417C967.729 367.897 968.963 369.133 970.443 369.133H980.433C981.791 369.133 983.147 367.897 983.147 366.417V336.917C983.147 323.093 978.461 310.873 960.326 310.873V310.873ZM824.521 356.418C817.367 356.418 812.678 353.21 812.678 353.21V332.843C813.912 329.635 817.859 324.944 825.26 324.944C834.143 324.944 838.708 332.719 838.708 340.743C838.708 348.765 833.895 356.418 824.521 356.418V356.418ZM827.357 310.873C815.64 310.873 809.145 318.876 808.753 319.368V314.823C808.753 313.34 807.519 312.107 806.039 312.107H799.973C798.493 312.107 797.261 313.34 797.261 314.823V389.622C797.261 390.98 798.493 392.338 799.973 392.338H809.966C811.322 392.338 812.678 390.98 812.678 389.622V368.146C815.27 369.133 820.697 370.489 826.37 370.489C843.392 370.489 854.617 357.406 854.617 340.743C854.617 323.461 842.9 310.873 827.357 310.873V310.873ZM1234.13 333.456C1233.89 327.904 1229.45 323.586 1223.16 323.586C1216.25 323.586 1211.81 327.78 1211.07 333.456H1234.13ZM1223.53 310.871C1238.33 310.871 1249.68 321.857 1249.68 337.284C1249.68 338.147 1249.55 340.122 1249.43 340.985C1249.31 342.47 1247.95 343.577 1246.72 343.577H1210.21C1210.33 350.614 1216.12 356.785 1224.39 356.785C1230.07 356.785 1234.01 354.688 1236.6 352.588C1237.96 351.477 1239.44 351.355 1240.3 352.588L1245.11 359.006C1246.1 360.118 1246.22 361.476 1244.87 362.709C1239.93 366.906 1232.9 370.485 1223.65 370.485C1206.63 370.485 1194.79 356.909 1194.79 340.617C1194.79 324.571 1206.63 310.871 1223.53 310.871V310.871ZM1126.99 356.418C1119.59 356.418 1115.64 351.729 1114.41 348.519V328.152C1114.41 328.152 1119.1 324.944 1126.25 324.944C1135.63 324.944 1140.44 332.597 1140.44 340.619C1140.44 348.643 1135.87 356.418 1126.99 356.418V356.418ZM1128.35 310.873C1122.68 310.873 1117 312.231 1114.41 313.34V291.616C1114.41 290.26 1113.18 288.902 1111.7 288.902H1101.71C1100.35 288.902 1098.99 290.26 1098.99 291.616V366.417C1098.99 367.897 1100.35 369.133 1101.71 369.133H1106.02C1106.11 369.133 1106.19 369.133 1106.27 369.112H1107.42C1108.92 369.112 1110.15 367.878 1110.15 366.396V362.179L1110.22 361.973C1110.22 361.973 1116.75 370.489 1129.21 370.489C1144.76 370.489 1155.98 356.913 1155.98 340.619C1155.98 323.956 1145.25 310.873 1128.35 310.873V310.873ZM1041.08 288.902H983.063C981.707 288.902 980.72 290.014 980.72 291.248V301.369C980.72 302.602 981.707 303.714 983.063 303.714H1003.99V366.788C1003.99 368.022 1005.1 369.133 1006.33 369.133H1017.81C1019.04 369.133 1020.15 368.022 1020.15 366.788V303.714H1041.08C1042.43 303.714 1043.42 302.602 1043.42 301.369V291.248C1043.42 290.014 1042.43 288.902 1041.08 288.902V288.902ZM902.967 333.456C902.72 327.904 898.282 323.586 891.989 323.586C885.083 323.586 880.644 327.78 879.903 333.456H902.967ZM892.361 310.871C907.161 310.871 918.509 321.857 918.509 337.284C918.509 338.147 918.385 340.122 918.265 340.985C918.139 342.47 916.783 343.577 915.549 343.577H879.038C879.162 350.614 884.959 356.785 893.225 356.785C898.899 356.785 902.847 354.688 905.434 352.588C906.792 351.477 908.273 351.355 909.136 352.588L913.945 359.006C914.934 360.118 915.054 361.476 913.698 362.709C908.765 366.906 901.735 370.485 892.484 370.485C875.463 370.485 863.624 356.909 863.624 340.617C863.624 324.571 875.463 310.871 892.361 310.871V310.871Z" fill="white"/>
</svg>
