<svg width="1660" height="660" viewBox="0 0 1660 660" fill="none" xmlns="http://www.w3.org/2000/svg">
<path fill-rule="evenodd" clip-rule="evenodd" d="M567.852 290.142C575.108 283.934 583.044 279.036 600.176 277.333V306.435L589.122 308.137C573.405 310.94 568.585 313.376 568.585 327.416V390.283H535.764V278.381H567.852V290.142Z" fill="#0078FF"/>
<mask id="mask0_7_338" style="mask-type:luminance" maskUnits="userSpaceOnUse" x="411" y="230" width="838" height="201">
<path fill-rule="evenodd" clip-rule="evenodd" d="M411 430.02H1248.51V230H411V430.02Z" fill="white"/>
</mask>
<g mask="url(#mask0_7_338)">
<path fill-rule="evenodd" clip-rule="evenodd" d="M614.635 390.388H647.509V278.643H614.635V390.388Z" fill="#0078FF"/>
<path fill-rule="evenodd" clip-rule="evenodd" d="M870.948 362.753C867.157 368.943 862.597 374.63 857.376 379.675C845.759 390.247 830.545 395.989 814.837 395.732C781.413 395.732 757.919 374.253 757.919 337.159C757.919 309.867 771.278 274.766 815.675 274.766C822.383 274.766 841.869 275.421 856.302 291.007C870.738 306.593 871.838 328.936 872.283 341.719H791.762C791.55 355.838 799.62 369.93 817.406 369.93C835.192 369.93 841.846 357.986 845.958 349.97L870.948 362.622V362.753ZM837.966 320.842C837.311 316.075 836.447 309.788 831.682 304.811C827.289 300.704 821.479 298.451 815.465 298.525C809.084 298.509 802.992 301.181 798.677 305.885C795.086 310.142 792.768 315.326 791.995 320.842H837.966Z" fill="#0078FF"/>
<path fill-rule="evenodd" clip-rule="evenodd" d="M886.742 390.388H920.925V230H886.742V390.388Z" fill="#0078FF"/>
<path fill-rule="evenodd" clip-rule="evenodd" d="M941.933 390.388H974.807V278.643H941.933V390.388Z" fill="#0078FF"/>
<path fill-rule="evenodd" clip-rule="evenodd" d="M1031.8 288.807C1034.84 285.095 1038.66 282.106 1042.99 280.058C1049.49 277.425 1056.44 276.055 1063.45 276.024C1070.39 275.874 1077.26 277.402 1083.49 280.477C1095.33 286.685 1098.31 296.743 1098.31 314.058V390.388H1065.44V327.522C1065.44 317.463 1065.23 313.848 1063.92 310.836C1061.3 304.864 1055.51 302.297 1049.07 302.297C1031.62 302.297 1031.62 316.18 1031.62 330.115V390.362H998.462V278.984H1031.8V288.807Z" fill="#0078FF"/>
<path fill-rule="evenodd" clip-rule="evenodd" d="M1224.6 362.753C1220.78 368.932 1216.21 374.617 1211 379.675C1199.39 390.247 1184.19 395.989 1168.49 395.732C1135.04 395.732 1111.52 374.253 1111.52 337.159C1111.52 309.867 1124.9 274.766 1169.35 274.766C1176.03 274.766 1195.55 275.421 1209.95 291.007C1224.36 306.593 1225.46 328.936 1225.88 341.719H1145.41C1145.18 355.838 1153.27 369.93 1171.08 369.93C1188.89 369.93 1195.47 357.986 1199.55 349.97L1224.6 362.622V362.753ZM1191.59 320.842C1190.93 316.075 1190.07 309.788 1185.33 304.811C1180.95 300.709 1175.15 298.457 1169.14 298.525C1162.75 298.514 1156.64 301.183 1152.3 305.885C1148.72 310.147 1146.4 315.331 1145.62 320.842H1191.59Z" fill="#0078FF"/>
<path fill-rule="evenodd" clip-rule="evenodd" d="M741.624 357.619C741.624 357.305 740.996 357.41 740.76 357.777C740.021 359.091 739.144 360.317 738.141 361.444C733.931 366.408 727.757 369.281 721.245 369.302C703.512 369.302 696.151 350.494 696.151 335.564C696.151 321.943 702.202 301.511 720.171 301.511C724.653 301.511 729.028 302.871 732.718 305.414C736.373 307.95 739.322 311.376 741.284 315.368C741.467 315.735 742.017 315.892 742.096 315.604C744.694 306.113 749.692 297.454 756.608 290.457C746.245 281.03 732.658 275.938 718.652 276.234C680.985 276.234 661.941 303.895 661.941 336.769C661.941 382.871 696.387 395.863 718.023 395.863C729.635 395.905 740.975 392.345 750.478 385.673C752.309 384.395 754.059 383.004 755.717 381.509C749.045 375.028 744.218 366.895 741.729 357.934" fill="#0078FF"/>
<path fill-rule="evenodd" clip-rule="evenodd" d="M648.819 250.38C648.819 260.187 640.866 268.139 631.059 268.139C621.252 268.139 613.299 260.187 613.299 250.38C613.299 240.58 621.233 232.633 631.033 232.62C640.84 232.604 648.803 240.544 648.819 250.354V250.38" fill="#0078FF"/>
<path fill-rule="evenodd" clip-rule="evenodd" d="M977.426 250.38C977.426 260.187 969.476 268.139 959.666 268.139C949.859 268.139 941.907 260.187 941.907 250.38C941.907 240.57 949.859 232.62 959.666 232.62H959.693C969.487 232.62 977.426 240.559 977.426 250.354V250.38" fill="#0078FF"/>
<path fill-rule="evenodd" clip-rule="evenodd" d="M1237.51 267.982C1243.58 267.982 1248.51 272.906 1248.51 278.983C1248.51 285.06 1243.58 289.985 1237.51 289.985C1231.44 289.985 1226.51 285.06 1226.51 278.983C1226.5 272.922 1231.4 267.995 1237.46 267.982H1237.51ZM1237.51 288.282C1242.65 288.311 1246.83 284.172 1246.86 279.036C1246.89 273.899 1242.75 269.713 1237.61 269.684C1232.48 269.655 1228.29 273.797 1228.26 278.931V279.036C1228.26 284.102 1232.32 288.235 1237.38 288.335L1237.51 288.282ZM1233.5 272.566H1238.3C1241.15 272.566 1242.57 273.77 1242.57 276.18C1242.7 278.058 1241.3 279.696 1239.42 279.848L1243.04 285.506H1240.89L1237.33 279.874H1235.39V285.506H1233.5V272.566ZM1235.31 278.171H1237.56C1239.34 278.171 1240.6 277.909 1240.6 276.18C1240.6 274.452 1239.4 274.268 1237.72 274.268H1235.31V278.171Z" fill="#0078FF"/>
<path fill-rule="evenodd" clip-rule="evenodd" d="M1237.51 267.982C1243.58 267.982 1248.51 272.906 1248.51 278.983C1248.51 285.06 1243.58 289.985 1237.51 289.985C1231.44 289.985 1226.51 285.06 1226.51 278.983C1226.5 272.922 1231.4 267.995 1237.46 267.982H1237.51ZM1237.51 288.282C1242.65 288.311 1246.83 284.172 1246.86 279.036C1246.89 273.899 1242.75 269.713 1237.61 269.684C1232.48 269.655 1228.29 273.797 1228.26 278.931V279.036C1228.26 284.102 1232.32 288.235 1237.38 288.335L1237.51 288.282ZM1233.5 272.566H1238.3C1241.15 272.566 1242.57 273.77 1242.57 276.18C1242.7 278.058 1241.3 279.696 1239.42 279.848L1243.04 285.506H1240.89L1237.33 279.874H1235.39V285.506H1233.5V272.566ZM1235.31 278.171H1237.56C1239.34 278.171 1240.6 277.909 1240.6 276.18C1240.6 274.452 1239.4 274.268 1237.72 274.268H1235.31V278.171Z" fill="#0078FF"/>
</g>
<mask id="mask1_7_338" style="mask-type:luminance" maskUnits="userSpaceOnUse" x="411" y="275" width="111" height="156">
<path fill-rule="evenodd" clip-rule="evenodd" d="M411 275.709H521.199V430.019H411V275.709Z" fill="white"/>
</mask>
<g mask="url(#mask1_7_338)">
<path fill-rule="evenodd" clip-rule="evenodd" d="M440.547 289.277C441.621 287.968 442.695 286.658 443.769 285.61C449.401 280.188 459.485 275.709 472.111 275.709C499.772 275.709 521.199 296.664 521.199 334.148C521.199 357.225 511.01 393.062 472.321 393.062C459.774 393.062 453.304 388.973 444.424 383.577V430.019H411V278.8H440.547V289.277ZM466.925 299.231C460.08 299.255 453.689 302.655 449.846 308.321C445.052 314.555 442.931 324.273 442.931 334.829C442.931 349.082 446.598 357.933 450.789 362.674C454.692 366.755 460.075 369.086 465.72 369.144C481.908 369.144 489.059 351.672 489.059 333.965C489.059 319.113 484.946 303.37 471.325 299.912C469.853 299.49 468.326 299.27 466.794 299.257L466.925 299.231Z" fill="#0078FF"/>
</g>
</svg>
