<?xml version="1.0" encoding="UTF-8"?>
<svg id="Layer_2" data-name="Layer 2" xmlns="http://www.w3.org/2000/svg" version="1.1" viewBox="0 0 650 100">
  <defs>
    <style>
      .cls-1 {
        fill: #d91c5c;
      }

      .cls-1, .cls-2 {
        stroke-width: 0px;
      }

      .cls-2 {
        fill: #231f20;
      }

      .cls-3 {
        fill: none;
        stroke: #828282;
        stroke-miterlimit: 10;
        stroke-width: 2px;
      }
    </style>
  </defs>
  <g>
    <path class="cls-2" d="M539.01,95.41c-5.97,0-10.48-1.52-13.54-4.56-3.06-3.04-4.59-7.52-4.59-13.44s1.53-10.41,4.61-13.46c3.07-3.04,7.57-4.56,13.52-4.56h13.93v7.55h-12.62c-3.46,0-5.79.48-6.98,1.45-1.19.97-1.83,2.71-1.93,5.24h21.53v7.55h-21.53c.09,2.57.69,4.34,1.79,5.28,1.11.94,3.45,1.41,7.05,1.41h12.68v7.55h-13.93Z"/>
    <path class="cls-2" d="M430.47,95.41c-5.96,0-10.47-1.52-13.54-4.56-3.06-3.04-4.58-7.52-4.58-13.44s1.53-10.41,4.6-13.46c3.08-3.04,7.58-4.56,13.52-4.56h13.93v7.55h-12.62c-3.45,0-5.79.48-6.98,1.45-1.19.97-1.83,2.71-1.93,5.24h21.53v7.55h-21.53c.1,2.57.69,4.34,1.8,5.28,1.1.94,3.45,1.41,7.04,1.41h12.69v7.55h-13.93Z"/>
    <path class="cls-2" d="M449.98,59.38h6.68v-8.3h9.54v8.3h10.07v7.57h-10.07v14.16c0,2.68.45,4.54,1.37,5.58.92,1.03,2.51,1.55,4.79,1.55h3.92v7.16h-8.71c-3.52,0-6.22-.97-8.09-2.92-1.89-1.94-2.82-4.73-2.82-8.35v-17.18h-6.68v-7.57Z"/>
    <path class="cls-2" d="M482.68,59.38h17.9c5.42,0,9.28,1.01,11.6,3.06,2.32,2.04,3.48,5.42,3.48,10.15v22.81h-9.54v-21.65c0-2.69-.41-4.43-1.25-5.24-.84-.8-2.51-1.2-5.02-1.2h-7.64v28.08h-9.53v-36.03Z"/>
    <path class="cls-2" d="M563.13,92.35c2.31,2.04,6.17,3.06,11.59,3.06h18.79c5.41,0,9.27-1.02,11.59-3.06,2.32-2.04,3.48-5.43,3.48-10.16v-22.81h-9.53v21.64c0,2.69-.42,4.43-1.26,5.23-.83.8-2.5,1.2-5.02,1.2h-3.86v-28.08h-9.59v28.08h-3.86c-2.51,0-4.18-.4-5.03-1.2-.83-.8-1.25-2.54-1.25-5.23v-21.64h-9.54v22.81c0,4.73,1.16,8.12,3.49,10.16"/>
    <path class="cls-2" d="M614.55,87.86h20.07c1.79,0,3.07-.28,3.89-.83.8-.55,1.22-1.44,1.22-2.66s-.42-2.12-1.23-2.67c-.82-.58-2.11-.86-3.87-.86h-8.2c-4.88,0-8.18-.74-9.89-2.23-1.72-1.49-2.58-4.14-2.58-7.94s1.03-6.72,3.11-8.55c2.06-1.83,5.28-2.73,9.62-2.73h20.46v7.55h-16.81c-2.74,0-4.51.24-5.33.71-.83.47-1.23,1.31-1.23,2.53,0,1.1.36,1.91,1.08,2.42.73.52,1.86.77,3.42.77h8.6c3.94,0,6.95.92,9.02,2.76,2.07,1.84,3.12,4.5,3.12,7.98s-.92,6.07-2.77,8.16c-1.84,2.1-4.2,3.15-7.11,3.15h-24.57v-7.55Z"/>
  </g>
  <line class="cls-3" x1="393.61" y1="55.5" x2="393.61" y2="93.8"/>
  <path class="cls-1" d="M81.76,21.4c0,3.71-3.01,6.72-6.73,6.72h-13.47c-3.72,0-6.73-3.01-6.73-6.72V7.95c0-3.72,3.02-6.74,6.73-6.74h13.47c3.72,0,6.73,3.02,6.73,6.74v13.45Z"/>
  <path class="cls-1" d="M48.13,41.51h-13.6c-3.65-.07-6.58-3.04-6.58-6.72v-13.45c-.01-3.7-3.03-6.72-6.75-6.72H7.73c-3.72,0-6.73,3.02-6.73,6.72v13.44c0,3.71,3.01,6.72,6.73,6.72h13.49c3.69.02,6.68,3,6.7,6.69v13.5c0,3.71,3.01,6.73,6.73,6.73h13.47c3.72,0,6.74-3.02,6.74-6.73v-13.47c0-3.71-3.02-6.72-6.74-6.72"/>
  <g>
    <path class="cls-2" d="M149.03,35.1h0c0-1.5-1.25-2.72-2.79-2.72l-11.14.64v2.72h1.4c.31.02,1.67.2,1.7,1.67l.14,12.87h-10.59v8.25l10.66.02.2,21.24h8.65c.99,0,1.78-.78,1.78-1.73h0v-42.95Z"/>
    <path class="cls-2" d="M112.03,89.54h0c-.98,0-1.78-.78-1.78-1.73l.63-9.19h0c0-1.51-1.25-2.72-2.79-2.72h0l-11.79.32v2.73h1.71c.32.02,1.67.2,1.73,1.67l-.64,11.1h.02c.02,3.01,2.5,5.44,5.57,5.44h0s46.02,0,46.02,0v-7.94l-38.67.32Z"/>
    <path class="cls-2" d="M113.35,45.04h11.27c.98,0,1.77-.78,1.78-1.72h0v-.3h0v-5.9h-35.95v7.93h11.74c.53,14.59-16.2,22.12-16.2,22.12l4.5,5.76h0s.07.1.07.1h0c.27.32.68.53,1.13.53l.66-.15h0c2.27-1.19,9.53-6.25,14.22-12.61h0c.27-.36.7-.6,1.2-.6s.93.24,1.2.59c4.52,6.1,10.82,11.71,13.39,13.1h0l.71.19c.53,0,.98-.27,1.24-.66l4.52-6.04s-16.43-8.06-15.51-22.33"/>
    <path class="cls-2" d="M293.85,35.16h0c0-1.51-1.25-2.72-2.79-2.72l-11.15.32v2.72h1.4c.32.03,1.67.2,1.7,1.67l.42,42.63h8.64c.99,0,1.78-.78,1.78-1.73h0v-42.88Z"/>
    <path class="cls-2" d="M257.35,89.54h0c-.98,0-1.77-.78-1.78-1.73l.63-9.98h0c0-1.5-1.25-2.72-2.8-2.72h0s-11.79.32-11.79.32v2.73h1.72c.32.02,1.67.2,1.72,1.67l-.63,11.88h.01c.02,3.01,2.49,5.44,5.57,5.44h.01s45.45,0,45.45,0v-7.94l-38.11.32Z"/>
    <path class="cls-2" d="M270.58,71.33l.1-.11,5.11-5.58s-16.6-11.41-15.62-23.24l-.05-4.81h0c.09-1.48-1.1-2.69-2.65-2.69l-11.28.34-.16,2.71h1.42c.31,0,2.05.45,2,1.91l-.17,2.75c-.41,14.41-18.02,23.07-18.02,23.07l4.55,6.2h0c.27.32.67.54,1.14.53l.77-.2h0c2.74-1.45,11-7.86,15.65-14.08h0c.28-.38.75-.63,1.28-.64.45,0,.84.18,1.1.48l.07.12v.03s.02,0,.02,0c4.13,6.21,10.24,12.13,12.74,13.59h.02l.73.2c.48,0,.91-.21,1.22-.55h0Z"/>
    <path class="cls-2" d="M354.01,53.74h-27.83c-.92-.05-1.65-.78-1.69-1.68l.32-7.63h29.2v9.31ZM365.18,38.28c0-.96-.8-1.74-1.77-1.74h-52.86v2.72h1.4c.32.03,1.66.2,1.71,1.67l-.32,15.2c0,3.02,2.51,5.46,5.59,5.46h0s44.47.01,44.47.01c.98,0,1.76-.76,1.78-1.72v1.19c0-6.28,0-22.76,0-22.79"/>
    <path class="cls-2" d="M327.56,89.54h0c-.98,0-1.77-.78-1.77-1.73l.3-5.51c0-1.51-1.24-2.72-2.79-2.72h0s0,0,0,0l-11.79.32v2.73h1.71c.32.02,1.67.2,1.72,1.67l-.32,7.42h.02c.01,3.01,2.5,5.44,5.56,5.44h.01s46.57,0,46.57,0v-7.94l-39.24.32Z"/>
    <path class="cls-2" d="M371.07,66.82h-63.89v7.92h28.42s0,9.39,0,9.39h8.74c.98,0,1.78-.78,1.78-1.73h0s0,0,0,0v-7.66h24.95v-7.92Z"/>
    <path class="cls-2" d="M228.53,56.78h-10.6v-21.61h0c0-1.51-1.25-2.72-2.79-2.72l-11.15.32v2.72h1.4c.32.03,1.67.2,1.71,1.67l.59,61.64h8.46c.99,0,1.78-.78,1.78-1.73v-32.03h10.6v-8.25Z"/>
    <path class="cls-2" d="M186.11,50.65l-.02-5.46h11.63c.98,0,1.78-.77,1.79-1.73v.47-4.33.71s0-3.04,0-3.04h-37.5v7.93h12.73v5.46c.14,5.72-.9,17.18-16.55,27.54l5.2,5.83h.02c.26.3.66.49,1.1.49l.96-.36c2.8-2.08,9.91-7.94,14.05-15.23.26-.43.73-.7,1.27-.7s1.02.28,1.28.71v.02c4.49,7.34,10.62,12.89,13.36,14.94l.9.31c.43,0,.81-.18,1.08-.47h0l5.25-5.53c-15.05-10.94-16.58-21.93-16.57-27.54"/>
  </g>
</svg>