<svg xmlns="http://www.w3.org/2000/svg" xml:space="preserve" width="102.72321mm" height="37.059341mm" viewBox="0 0 102.72321 37.059342"><path d="m40.887 10.668-3.066.176v.748h.385c.084.007.459.057.468.459l.037 3.538h-2.913v2.269l2.932.003.057 5.839h2.379c.27 0 .489-.212.489-.477V11.412a.758.758 0 0 0-.768-.744zm18.952.018-3.065.088v.748h.383c.09.007.46.052.47.458l.162 16.948h2.329a.48.48 0 0 0 .488-.477v-8.805h2.915v-2.268h-2.915V11.43a.754.754 0 0 0-.767-.744zm20.878 0-3.066.088v.748h.385c.086.007.458.052.468.458l.117 11.72h2.375a.48.48 0 0 0 .488-.477v-11.79l-.002-.003a.754.754 0 0 0-.765-.744zm-9.237.674-3.101.095-.045.74h.39c.085.008.564.124.55.526l-.045.759c-.114 3.958-4.956 6.343-4.956 6.343l1.252 1.703h.001a.386.386 0 0 0 .312.145c.075 0 .15-.021.212-.056h.002c.753-.399 3.025-2.163 4.305-3.87h.002a.436.436 0 0 1 .35-.177c.124 0 .23.053.302.13a.101.101 0 0 0 .02.036l-.001.007h.008c1.137 1.707 2.815 3.338 3.503 3.736h.005a.384.384 0 0 0 .202.057c.133 0 .252-.06.334-.152l.004-.003.027-.032 1.406-1.535s-4.564-3.136-4.296-6.389l-.012-1.323c.024-.41-.302-.74-.731-.74zm14.596.451v.748h.384c.087.007.46.056.47.458l-.088 4.18c0 .83.69 1.504 1.54 1.504h.001l12.228.003c.27 0 .485-.212.489-.473l.002-5.94a.483.483 0 0 0-.486-.48h-14.54zm-60.533.159v2.18h3.228c.146 4.011-4.457 6.085-4.457 6.085l1.239 1.584.02.029h.003a.405.405 0 0 0 .494.102h.002c.625-.328 2.622-1.718 3.91-3.468v.004a.408.408 0 0 1 .662-.004c1.241 1.676 2.976 3.217 3.682 3.602h.003a.404.404 0 0 0 .535-.13l1.242-1.662s-4.518-2.22-4.266-6.142h3.1a.483.483 0 0 0 .488-.473v-.081c0-.003.002-.004.002-.004V11.97h-9.887zm19.681.042v2.18h3.502v1.5c.04 1.573-.248 4.723-4.55 7.574l1.43 1.601h.006a.411.411 0 0 0 .567.039c.77-.575 2.728-2.184 3.865-4.191a.413.413 0 0 1 .7.004l.003.003c1.233 2.022 2.918 3.546 3.673 4.11.067.05.154.081.248.081a.395.395 0 0 0 .297-.127h.002l1.444-1.52c-4.14-3.01-4.558-6.033-4.556-7.574l-.004-1.5h3.197c.27 0 .489-.215.49-.476v-1.062l.002.194v-.836H45.224zm44.777 1.969h8.029v2.557h-7.652a.48.48 0 0 1-.463-.462L90 13.981zm-4.85 6.159v2.176h7.815V24.9h2.405c.27 0 .49-.212.49-.473l-.002-.003h.002v-2.106h6.862V20.14H85.151zm-14.79 2.279-3.242.088v.752h.473c.087.003.459.053.473.455l-.174 3.27.005.003c.003.822.685 1.49 1.53 1.493h12.502v-2.184l-10.48.092a.485.485 0 0 1-.489-.476l.172-2.745a.76.76 0 0 0-.77-.748zm-39.968.215-3.243.089v.751h.47c.088.004.46.053.474.458l-.174 3.052.004.003c.004.822.687 1.49 1.531 1.493H42.116v-2.184l-10.638.092a.484.484 0 0 1-.49-.476l.172-2.53a.758.758 0 0 0-.767-.748zm59.193 1.013-3.242.088v.751h.47c.088.004.46.053.473.459l-.088 2.039.004.003c.004.822.688 1.49 1.532 1.493h12.812v-2.184l-10.79.092a.482.482 0 0 1-.487-.476l.084-1.514a.76.76 0 0 0-.768-.751zM45.38 32.059l-4.548.002v.511l.478.092c.055.014.066.042.066.088v2.067c0 .032.01.74.088 1.058.006.04.133.759.928.883.023.004.562.08.932.073h2.056v-.857h-2.336l-.185-.021c-.382-.053-.43-.318-.432-.328v-.004l-.002-.004c-.056-.194-.068-.444-.068-.444v-.005l-.001-.006c0-.004 0-.261-.002-.35h2.927v-.84h-2.927v-1.058h3.026v-.857zm-20.459.002v.864h1.795v3.908h.979l-.001-3.908h1.795v-.864H24.92zm5.127 0v.462l.41.08c.064.015.068.015.068.093l-.002 4.137h.938V33.69c.221-.035.597-.088.954-.088.75 0 .863.106.863.822v2.41h.937v-2.477c0-1.2-.34-1.527-1.577-1.527a6.152 6.152 0 0 0-1.176.166v-.935h-1.415zm15.854 0v.462l.41.08c.064.015.067.015.067.093l.001 4.137h.937v-4.772H45.9zm11.386.169v.818h-.766v.741h.766v1.916c0 .938.166 1.33 1.19 1.33.441 0 .826-.113.842-.117l.05-.014-.09-.667-.062.01c-.004 0-.36.064-.534.064-.424 0-.458-.07-.458-.483v-2.039h1.138v-.74h-1.138v-.82h-.938zm22.023.003v.861h1.795v3.909h.978v-3.909h1.795v-.86H79.31zm-42.367.597c-.87 0-1.507.126-1.794.744-.132.297-.211.78-.211 1.284 0 1.707.74 2.032 2.105 2.032a5.49 5.49 0 0 0 1.568-.219l.05-.014-.127-.705-.112.021c-.44.078-.819.145-1.297.145-.333 0-.79 0-1.027-.255-.18-.204-.207-.522-.207-.691v-.004c.468.053 1.005.067 1.292.07l.19.005c.414 0 .794-.028 1.071-.046l.401-.025.005-.053v-.014c.017-.265.025-.395.025-.533 0-.716-.124-1.132-.415-1.386-.282-.25-.735-.356-1.517-.356zm13.043 0c-.87 0-1.508.126-1.794.744-.132.297-.212.78-.212 1.284 0 1.707.74 2.032 2.105 2.032a5.49 5.49 0 0 0 1.568-.219l.05-.014-.126-.705-.112.021c-.44.078-.82.145-1.298.145-.333 0-.79 0-1.027-.255-.18-.204-.207-.522-.207-.691v-.004c.469.053 1.006.067 1.292.07l.19.005c.415 0 .794-.028 1.072-.046l.4-.025.006-.053.001-.014c.016-.265.023-.395.023-.533 0-1.351-.433-1.742-1.93-1.742zm4.491.112c-.76 0-1.21.124-1.502.41-.308.303-.445.804-.445 1.623 0 .818.137 1.315.445 1.619.292.285.741.409 1.502.409.914 0 1.462-.159 1.485-.166l.051-.018-.118-.716-.061.014c-.006 0-.562.113-1.15.113-1.044 0-1.201-.162-1.201-1.255 0-1.08.157-1.242 1.2-1.242.589 0 1.146.105 1.152.105l.06.011.119-.737-.056-.01c-.007 0-.74-.16-1.48-.16zm8.17.057h.001l-.267.007h-.001l-.022.003c-.192.01-.308.032-.313.032-.217.032-.55.095-.93.215l-.03-.208h-1.168v.459l.412.084c.064.014.067.015.067.089l-.002 3.323h.93v-3.066c.14-.018.557-.067 1.102-.067.266 0 .634.032.637.032l.061.007.067-.872-.058-.003a4.603 4.603 0 0 0-.485-.035zm2.615 0c-.73 0-1.28.067-1.588.395-.3.32-.36.864-.36 1.637s.06 1.315.36 1.633c.308.328.857.395 1.588.395 1.62 0 1.947-.342 1.947-2.028 0-1.69-.327-2.032-1.947-2.032zm4.954 0-.193.01-.252.018-.047.007a5.838 5.838 0 0 0-.856.148 15.72 15.72 0 0 1-.016-.134h-1.218v.459l.41.084c.064.014.068.015.068.089v3.323h.936v-3.144c.22-.035.597-.087.954-.087.75 0 .862.105.862.821l.002 2.41h.936v-2.477c0-1.185-.356-1.527-1.586-1.527zm6.321 0c-.76 0-1.21.124-1.502.41-.308.303-.445.803-.445 1.622 0 .818.137 1.316.445 1.619.292.286.741.41 1.502.41.914 0 1.462-.16 1.485-.167l.05-.017-.117-.716-.062.014c-.006 0-.561.113-1.15.113-1.043 0-1.2-.162-1.2-1.256 0-1.08.157-1.242 1.2-1.242a6.73 6.73 0 0 1 1.151.106l.062.01.117-.737-.056-.01c-.008 0-.74-.159-1.48-.159zm12.177 0c-.21 0-.321.01-.452.024l-.097.011a6.551 6.551 0 0 0-.857.141l-.015-.127h-1.218v.459l.41.085c.065.014.068.014.068.088l-.002 3.323h.938v-3.15c.152-.028.502-.081.88-.081.34 0 .577.024.7.137.11.102.154.293.154.684l.001 2.41h.935v-2.699c0-.162-.028-.317-.077-.455a6.2 6.2 0 0 1 .932-.07c.758 0 .863.102.863.821l-.003 2.403h.938v-2.476c0-1.186-.355-1.528-1.584-1.528l-.17.003a7.704 7.704 0 0 0-1.465.184c-.261-.156-.513-.187-.879-.187zm6.711 0c-.828.008-1.435.146-1.713.744-.133.3-.212.78-.212 1.288 0 1.704.74 2.028 2.105 2.028.88 0 1.54-.208 1.568-.215l.05-.017-.127-.706-.112.021c-.439.078-.819.145-1.297.145-.333 0-.79 0-1.027-.251-.18-.208-.206-.522-.206-.694.467.049 1.004.063 1.291.066l.19.004c.415 0 .794-.028 1.071-.046l.402-.024.004-.053v-.014c.017-.261.025-.395.025-.533 0-.716-.124-1.129-.415-1.386-.282-.25-.736-.356-1.516-.356v-.001h-.08zm4.64 0c-1.19 0-1.93.208-1.93 1.238 0 1.111.796 1.15 1.638 1.189l.198.01.359.018c.54.018.68.04.68.374 0 .163-.063.268-.205.339-.152.074-.4.112-.756.112-.744 0-1.71-.169-1.719-.172l-.061-.011-.116.787.056.01c.009.004.89.166 1.93.166.89 0 1.8-.151 1.8-1.28 0-1.143-.742-1.164-1.682-1.196l-.334-.011c-.575-.01-.875-.032-.875-.36 0-.342.212-.434 1.034-.434.71 0 1.457.138 1.464.141l.062.011.107-.744-.054-.01a7.87 7.87 0 0 0-1.595-.177zm-27.696.05v.457l.411.085c.064.014.067.015.067.089v3.323h.935l.002-3.955h-1.415zm11.696 0v.458l.411.085c.063.014.068.014.068.088v3.323h.936v-3.955h-1.415zm-47.08.528c.747 0 .92.082.927.904-.422.035-.97.02-.975.02h-.004c-.006 0-.551.022-1.03-.042.045-.744.079-.882 1.082-.882zm13.042 0c.748 0 .92.082.928.904-.422.035-.97.02-.976.02h-.004c-.005 0-.55.022-1.03-.042.046-.744.079-.882 1.082-.882zm15.235.17c.92 0 .994.095.994 1.284 0 1.185-.074 1.28-.994 1.28-.912 0-.996-.105-.996-1.28s.084-1.284.996-1.284zm30.285 0c.747 0 .92.08.927.906-.422.032-.97.018-.975.018h-.004c-.006 0-.55.024-1.03-.039.046-.748.079-.885 1.082-.885z" style="fill:#2c2c2b;fill-rule:evenodd;stroke:none;stroke-width:.352778"/><path d="M17.96 0a1.996 1.996 0 0 0-1.998 1.997v3.99c0 1.1.894 1.993 1.998 1.993h3.994a1.994 1.994 0 0 0 1.995-1.993v-3.99A1.995 1.995 0 0 0 21.954 0H17.96zM1.997 3.976A1.997 1.997 0 0 0 0 5.969v3.986c0 1.101.893 1.994 1.997 1.994h4a1.994 1.994 0 0 1 1.99 1.982v4c0 1.101.891 1.997 1.994 1.997h3.994a1.999 1.999 0 0 0 1.997-1.996v-3.99c0-1.1-.895-1.993-1.997-1.993H9.942a1.99 1.99 0 0 1-1.952-1.99l-.004-3.99A1.998 1.998 0 0 0 5.99 3.976H1.997z" style="fill:#d51b55;fill-rule:evenodd;stroke:none;stroke-width:.352778"/></svg>